<svg version="1.1" id="Layer_1" xmlns="http://www.w3.org/2000/svg" xmlns:xlink="http://www.w3.org/1999/xlink" x="0px" y="0px"
	 width="100%" viewBox="0 0 944 1024" enable-background="new 0 0 944 1024" xml:space="preserve">
<path fill="#000000" opacity="1.000000" stroke="none" 
	d="
M945.000000,884.531372 
	C943.941895,877.722046 939.919800,871.436096 938.325195,864.147339 
	C937.066406,858.393616 931.791260,853.424866 933.301880,846.514404 
	C926.648071,841.426880 929.261719,834.079834 928.725281,827.521301 
	C928.572021,825.647522 928.613586,823.704712 926.916748,822.573669 
	C923.052917,819.998169 924.008362,815.493896 922.451965,812.236511 
	C918.697021,804.377991 919.859619,794.829163 913.669067,787.981018 
	C913.128906,787.383484 912.465454,786.542847 912.495850,785.842834 
	C912.667175,781.908020 909.999146,779.552795 907.855347,776.849609 
	C900.908203,768.089722 895.067444,758.535889 888.138184,749.706543 
	C883.861938,744.257874 879.905334,737.539429 879.014160,729.036072 
	C878.330994,722.518066 875.395386,714.942505 872.119812,708.700623 
	C868.840027,702.450623 864.770386,696.384888 863.630859,689.574036 
	C862.190735,680.966797 857.404846,674.500305 852.908630,667.699402 
	C850.709290,664.372681 849.208618,660.546570 847.099976,657.434265 
	C842.829895,651.131531 841.165833,643.139465 834.812927,638.215149 
	C833.346802,637.078735 831.966980,635.678406 831.695679,633.809937 
	C830.885986,628.231262 826.358887,625.187256 823.278625,621.176270 
	C822.388000,620.016602 820.556152,619.206421 820.582520,617.730225 
	C820.692322,611.574768 815.542725,608.906433 812.461487,604.870544 
	C811.756470,603.947083 810.882935,603.079346 810.445984,602.035645 
	C807.225769,594.343567 802.080994,587.475281 799.185181,579.905762 
	C797.220886,574.771118 793.192261,570.672974 792.447144,564.899170 
	C791.956543,561.097473 788.558960,558.098389 786.560730,554.775024 
	C783.212830,549.206970 781.234131,543.054810 778.725281,537.295837 
	C776.261047,531.638977 770.985840,527.374207 770.622131,520.737244 
	C770.490784,518.342041 766.868347,517.660278 766.787415,515.796326 
	C766.519531,509.627686 761.816284,505.697083 759.503540,500.628296 
	C757.054443,495.260406 755.811890,489.102692 751.487427,484.573700 
	C750.520447,483.561005 749.950073,481.981171 749.643738,480.565796 
	C749.032410,477.740967 748.353088,475.115082 745.702087,473.380737 
	C744.402649,472.530609 743.862244,470.982208 743.824341,469.441589 
	C743.762573,466.932922 742.837097,464.940002 740.833069,463.421021 
	C740.445435,463.127228 739.891174,462.649353 739.910522,462.282593 
	C740.261841,455.613159 733.532104,452.092499 732.676880,445.951508 
	C732.524414,444.856689 732.016602,443.597778 731.253052,442.834991 
	C724.298645,435.888336 721.000977,426.875031 716.822449,418.296600 
	C715.211182,414.988678 712.116089,412.349579 709.474915,409.620758 
	C708.207520,408.311401 706.870667,407.201416 705.961548,405.515411 
	C704.320496,402.472137 697.968079,401.105011 693.300537,402.533936 
	C689.589661,403.669922 690.158691,406.780518 690.136963,409.556702 
	C690.108276,413.222321 690.096436,416.892670 690.249084,420.553833 
	C690.425659,424.790222 689.837463,428.490112 685.495728,430.647919 
	C683.015930,431.880310 682.986694,434.446411 683.104187,436.794891 
	C683.305908,440.825653 682.141052,443.762878 678.195923,445.695831 
	C674.918945,447.301422 673.350220,450.958832 670.575317,453.399170 
	C664.413452,458.818237 658.845947,464.934540 653.250854,470.965851 
	C651.148682,473.231903 648.920227,474.371704 645.866699,474.360626 
	C633.035034,474.314056 620.202820,474.319336 607.371277,474.386414 
	C604.516052,474.401337 602.325928,473.504974 600.335510,471.361511 
	C595.398132,466.044525 589.710083,461.440033 585.326904,455.588501 
	C584.416626,454.373291 583.124817,454.323792 581.734741,454.336792 
	C575.832153,454.392059 572.925842,452.309021 571.359497,446.593353 
	C570.291016,442.694733 569.496338,438.902069 565.140808,437.006714 
	C563.264709,436.190277 562.880249,433.808624 562.764221,431.764679 
	C562.669861,430.103760 562.386902,428.337921 562.802490,426.782959 
	C565.069031,418.301361 557.977417,414.903961 553.744202,410.024139 
	C553.059509,409.234833 551.262390,409.232697 549.967834,409.185577 
	C546.805664,409.070526 543.636536,409.128540 540.470337,409.141510 
	C531.520386,409.178162 531.492737,409.177856 529.876587,417.901367 
	C529.517639,419.838715 528.694519,421.317413 526.933960,422.264557 
	C522.945435,424.410339 522.061523,427.982605 522.727905,432.066040 
	C523.618591,437.524414 523.116760,442.325409 517.940857,445.686035 
	C515.877625,447.025635 516.169006,449.479431 516.030334,451.631836 
	C515.806030,455.113739 514.554565,457.652893 511.426788,459.892120 
	C507.590668,462.638428 504.560516,466.514526 501.208374,469.928131 
	C500.748291,470.396606 500.427338,471.006012 500.063843,471.564423 
	C497.292603,475.822388 491.061340,473.085999 489.098328,475.643005 
	C486.259308,479.341034 483.869751,481.442719 479.234009,481.146790 
	C475.416534,480.903107 471.570282,481.148346 467.738800,481.073822 
	C464.743439,481.015594 461.656372,481.140472 460.328552,477.431549 
	C459.792511,475.934204 458.118958,476.312622 456.852539,476.009399 
	C451.121796,474.637207 445.049042,475.878845 439.502258,474.343689 
	C432.168335,472.313934 425.719940,467.792419 419.049561,464.265808 
	C413.708557,461.442108 410.353119,454.960602 405.275085,450.922089 
	C403.119873,449.208069 402.716248,446.741730 402.729095,444.156677 
	C402.763916,437.157715 402.683594,430.156158 402.855652,423.160675 
	C402.959473,418.938232 401.203583,417.007477 396.952606,417.080719 
	C390.788544,417.186920 384.617920,416.992981 378.456757,417.164856 
	C371.602386,417.355988 368.153076,420.954224 368.078735,427.742371 
	C368.013092,433.740845 367.477509,439.810974 368.195557,445.722382 
	C369.154999,453.621094 365.144012,458.949646 359.873901,463.318268 
	C355.321167,467.092285 351.628418,471.548096 347.766541,475.866089 
	C345.552673,478.341339 343.424683,480.832092 340.925018,483.046936 
	C338.326385,485.349457 336.392365,487.913177 335.564484,491.695953 
	C334.679047,495.741791 330.464203,498.053589 327.952576,501.328003 
	C327.352783,502.109924 325.883728,502.733551 325.901276,503.401398 
	C326.063446,509.575043 320.358521,512.964172 318.988251,518.443054 
	C317.988861,522.439026 314.557892,525.027344 311.834015,527.914612 
	C309.969818,529.890686 308.505768,531.723877 308.083221,534.653687 
	C307.472626,538.887207 303.660858,541.248657 300.813599,543.893738 
	C296.174469,548.203430 293.008240,553.785950 287.859344,557.704773 
	C285.232819,559.703796 285.683594,564.207886 283.155579,566.835449 
	C278.770081,571.393616 274.541443,576.105347 270.086639,580.593506 
	C266.102051,584.608032 262.165527,588.749817 257.711609,592.193787 
	C254.155945,594.943176 249.335098,595.503784 245.914551,599.062744 
	C238.794250,606.471130 230.772568,613.652771 227.710327,623.391235 
	C225.692535,629.808228 222.363358,633.989929 217.772751,637.995911 
	C217.167892,638.523804 216.467346,639.257446 216.351685,639.981995 
	C215.094727,647.856506 208.897491,652.337341 204.072815,657.657471 
	C198.376190,663.939209 190.565353,668.913818 186.706741,676.087830 
	C182.490341,683.927185 175.283508,689.607117 172.445801,698.360840 
	C171.209702,702.173889 167.371811,705.149292 164.688370,708.483276 
	C164.069153,709.252563 162.854095,709.860291 162.735046,710.664124 
	C161.743454,717.359680 156.246964,720.824829 152.345718,725.405090 
	C149.682617,728.531555 147.998062,732.958008 147.640640,736.081665 
	C146.540634,745.694763 139.354218,753.454834 140.176804,763.398682 
	C140.504532,767.360596 138.693695,770.288391 136.649063,773.746826 
	C133.780334,778.599304 130.338135,783.708252 129.990677,789.795776 
	C129.731903,794.329407 128.065842,797.941345 125.627495,801.998291 
	C122.346451,807.457275 118.192703,812.713989 117.799728,820.250610 
	C117.435768,827.230774 114.393440,834.626404 111.627640,840.988770 
	C109.101585,846.799744 107.451958,852.150452 107.138252,858.239929 
	C107.062317,859.713867 107.195564,861.640686 106.356812,862.561401 
	C100.977791,868.466309 102.308296,875.642883 102.289871,882.528198 
	C102.278763,886.681152 101.994019,890.493103 98.167542,893.150269 
	C96.522865,894.292419 96.379868,896.255859 96.378181,898.132874 
	C96.349724,929.795715 96.323906,961.458557 96.291122,993.121399 
	C96.289711,994.483459 96.283081,996.012695 97.357384,996.858093 
	C101.804398,1000.357117 102.570091,1005.108032 102.351776,1010.302429 
	C102.318573,1011.092468 102.438736,1012.338745 102.929916,1012.630920 
	C107.424347,1015.304138 106.854637,1020.405090 108.861359,1024.657715 
	C104.975456,1025.000000 100.950912,1025.000000 96.463181,1025.000000 
	C96.153069,1021.061523 95.687248,1017.430786 92.264610,1014.686829 
	C91.371056,1013.970459 90.854790,1012.343262 90.795868,1011.104370 
	C90.574059,1006.440430 90.760590,1001.801636 86.706894,998.272766 
	C85.457817,997.185364 85.948677,995.122437 85.950951,993.458923 
	C85.993439,962.292969 86.031273,931.127075 86.072716,899.961121 
	C86.078323,895.741699 86.296906,891.614746 89.727875,888.444641 
	C91.087517,887.188354 90.794235,885.356262 90.832695,883.714111 
	C90.941917,879.049133 90.982826,874.382629 91.062782,869.716980 
	C91.097473,867.692932 91.037590,865.253357 92.694077,864.128784 
	C97.332672,860.979980 96.607285,856.436584 96.342552,852.029663 
	C96.081314,847.680847 96.647057,843.728149 100.016159,840.599365 
	C101.448860,839.268799 101.955101,837.586365 101.983398,835.650391 
	C102.047501,831.264587 102.606682,827.072876 105.796646,823.585510 
	C107.505173,821.717590 106.870438,819.118408 106.837730,816.830322 
	C106.787331,813.303345 107.462242,810.173889 110.579552,808.077759 
	C112.115318,807.045044 112.782127,805.674133 112.731468,803.856262 
	C112.688988,802.332031 112.706596,800.471558 113.877869,799.630737 
	C118.241203,796.498474 117.896156,791.993530 117.957176,787.506042 
	C117.992348,784.919006 118.749512,782.572632 120.927788,780.910217 
	C122.610275,779.626160 123.443733,777.914856 123.791756,775.831543 
	C124.005844,774.550049 124.243309,772.760681 125.118752,772.184326 
	C130.836472,768.419800 129.624161,762.705627 129.470169,757.378723 
	C129.368820,753.872620 129.982910,750.882385 132.415512,748.193909 
	C135.278900,745.029236 134.350540,740.720947 134.296173,737.173096 
	C134.192337,730.396179 138.129089,726.401672 142.317169,722.438660 
	C146.295578,718.674194 150.261887,715.430481 151.306686,709.303711 
	C151.997864,705.250549 157.711594,703.428528 158.952362,699.251709 
	C161.635483,690.219360 170.674408,685.320129 173.226822,676.012451 
	C174.235931,672.332642 178.509903,669.444397 181.544022,666.445374 
	C187.574081,660.485046 194.758118,655.277222 198.830124,647.911377 
	C202.941376,640.474426 208.809052,634.748596 213.903152,628.270813 
	C214.964584,626.921021 215.933029,625.437073 215.695969,623.734741 
	C214.964600,618.482849 217.868835,614.970886 221.028305,611.401672 
	C231.607239,599.450623 243.700378,589.056152 255.143433,577.994507 
	C267.237885,566.303040 278.976746,554.264282 290.336853,541.862000 
	C293.695251,538.195557 293.440491,532.418152 297.696381,529.101746 
	C304.769318,523.589905 308.286865,514.966187 312.370270,507.744873 
	C316.574280,500.310333 323.215759,494.455475 325.995850,485.803253 
	C327.701447,480.494843 333.576843,476.330292 338.310883,472.359222 
	C339.328125,471.505920 340.475891,470.847443 340.802765,469.382782 
	C342.573273,461.449005 347.764221,456.823608 355.337006,454.616241 
	C357.943878,453.856415 357.853088,451.797607 357.876831,449.812256 
	C357.968384,442.146698 358.036102,434.480438 358.036407,426.814423 
	C358.036560,423.372314 358.706879,420.459137 361.364166,417.808136 
	C365.124390,414.056763 364.128448,411.208527 359.022156,410.041260 
	C355.072327,409.138336 352.907074,406.924225 352.879364,402.766754 
	C352.853577,398.894562 355.440704,397.660919 358.600433,397.024323 
	C364.688324,395.797821 366.498199,390.552673 368.432526,385.868164 
	C369.329132,383.696899 369.759277,381.497131 371.759338,380.041992 
	C373.004364,379.136078 374.134216,378.049896 374.410065,376.524231 
	C375.950806,368.003510 382.524384,363.111938 388.221863,357.723022 
	C390.016937,356.025177 391.723145,354.870789 391.485107,352.154022 
	C391.365784,350.792236 391.867493,349.479584 392.884552,348.523315 
	C394.880707,346.646484 394.568634,344.838470 393.083588,342.802002 
	C391.871552,341.139862 391.411133,339.117310 391.664062,337.089172 
	C392.316528,331.856873 390.489838,327.849152 387.363251,323.497223 
	C381.799011,315.752167 376.151611,308.106689 370.285889,300.581390 
	C365.310699,294.198669 361.608582,287.457733 362.415863,278.331451 
	C363.498322,266.094208 362.736237,253.688202 362.638031,241.355667 
	C362.609894,237.818634 363.085114,235.129700 366.750885,233.167084 
	C372.325775,230.182358 372.711273,223.042404 377.025238,218.884109 
	C380.841187,215.205902 383.111816,209.439224 389.785065,209.618057 
	C390.457764,209.636093 391.236694,208.873672 391.823181,208.321411 
	C393.513916,206.729202 394.850555,204.250198 396.827667,203.563919 
	C404.217285,200.998825 408.176971,194.153229 414.230835,189.889359 
	C418.927948,186.581085 424.583191,186.130341 428.919495,182.397705 
	C431.829498,179.892838 436.242767,180.663864 440.073608,180.776886 
	C442.674255,180.853622 444.994049,180.629974 446.617676,178.131088 
	C447.198730,177.236801 448.582581,176.086197 449.384064,176.232849 
	C457.833221,177.778702 464.018402,170.290649 472.124786,170.682877 
	C473.530762,170.750885 474.752441,170.119629 475.743103,169.199387 
	C478.236328,166.883438 481.361694,166.380371 484.526550,166.093811 
	C490.590149,165.544815 497.137695,167.651611 502.298248,162.263611 
	C503.148376,161.375961 505.502930,161.833542 507.162415,161.831558 
	C523.328918,161.812210 539.495483,161.823456 555.662048,161.836838 
	C558.168457,161.838913 560.709839,161.692688 562.217590,164.405319 
	C563.180298,166.137314 564.995117,166.026413 566.658203,166.048233 
	C574.481445,166.150909 582.304993,166.287109 590.128418,166.286179 
	C592.881104,166.285843 595.794678,166.633438 597.788940,168.147690 
	C601.928589,171.291016 606.477112,171.134567 611.117920,171.024017 
	C616.240723,170.901993 620.686523,172.796585 625.445557,174.460114 
	C631.477295,176.568497 637.527466,178.653748 643.410522,181.138382 
	C648.749573,183.393250 653.925354,186.039764 659.132141,188.597046 
	C659.988953,189.017838 660.533020,190.215164 661.393555,190.467834 
	C674.081909,194.193497 679.945312,205.795395 688.588989,214.127335 
	C693.898010,219.244934 698.005737,225.490616 702.358948,231.469864 
	C703.637634,233.226074 704.148132,234.959610 704.137085,237.006790 
	C704.115479,241.006226 704.121155,245.005798 704.111450,249.005325 
	C704.105652,251.390701 704.231445,253.566605 706.820984,254.925293 
	C709.048828,256.094238 708.942139,258.589905 708.969604,260.719269 
	C709.057922,267.551147 709.037659,274.385162 708.985718,281.217773 
	C708.965027,283.936829 708.655457,286.576752 705.729858,287.984558 
	C705.200500,288.239258 704.481628,289.048676 704.558716,289.473450 
	C705.803345,296.332123 700.421326,300.774689 698.265320,306.347137 
	C696.414185,311.131317 694.022156,316.253906 687.775513,317.249939 
	C685.447510,317.621155 685.096924,319.450867 685.090393,321.405212 
	C685.078796,324.905029 684.973755,328.408997 685.106445,331.903687 
	C685.250793,335.705566 684.881042,339.048279 681.482727,341.691010 
	C679.044800,343.586884 679.149475,347.306549 679.576538,349.613434 
	C680.464294,354.409424 681.619446,359.238403 685.877625,362.975830 
	C691.862732,368.229065 697.901489,373.654419 700.539368,381.755432 
	C701.622009,385.080292 703.961670,387.969421 707.854858,388.386932 
	C709.861328,388.602142 710.985840,389.435547 711.463806,391.191376 
	C714.195740,401.227539 719.690491,409.432526 727.484131,416.274170 
	C732.493774,420.671875 733.294922,427.610748 736.975952,432.948914 
	C740.938538,438.695526 743.661926,445.290710 747.014587,451.467590 
	C747.981445,453.248932 748.102478,455.600372 749.179443,456.946381 
	C753.003235,461.725861 753.513733,468.166473 757.566345,472.735260 
	C758.007263,473.232300 758.842224,473.698639 758.860962,474.202759 
	C759.086243,480.254669 765.224915,483.755005 765.502686,489.781586 
	C765.582764,491.517578 766.689331,492.844177 767.961792,493.997650 
	C769.770325,495.636932 770.827576,497.762909 771.014954,500.122009 
	C771.199890,502.449463 772.000122,504.257416 773.792053,505.725586 
	C775.451965,507.085602 776.067078,508.966125 776.078735,511.059265 
	C776.088501,512.802063 776.450806,514.330872 778.042297,515.385376 
	C780.284302,516.870911 781.244690,519.056519 781.556885,521.700134 
	C781.770813,523.511597 782.369446,525.270935 783.917053,526.520447 
	C789.165466,530.758118 792.343323,535.854919 792.930176,542.948181 
	C793.393127,548.543091 798.276978,552.627258 800.188171,557.894775 
	C800.451599,558.620605 801.713318,559.131287 801.739563,559.773254 
	C802.011414,566.411072 806.535217,571.227173 809.445679,576.540527 
	C812.370300,581.879700 813.141052,588.277161 817.856812,592.814941 
	C819.885925,594.767395 820.671143,598.030518 821.963379,600.726074 
	C823.584351,604.107544 824.352356,608.085571 828.544495,609.592957 
	C829.099548,609.792480 829.790894,610.477539 829.866333,611.015198 
	C830.813477,617.770752 836.558289,621.108521 840.313843,625.854675 
	C840.623352,626.245850 841.165039,626.643494 841.177612,627.051208 
	C841.411133,634.609741 847.212646,638.665222 851.937256,642.954407 
	C857.717712,648.202026 858.242126,655.969116 862.493713,661.776672 
	C866.697571,667.519226 868.021301,674.819336 872.773193,680.229492 
	C873.202576,680.718445 873.731873,681.372620 873.730103,681.948547 
	C873.709900,688.400513 875.797485,694.078613 879.161560,699.561279 
	C880.304077,701.423401 881.683594,703.694031 882.117126,705.641052 
	C884.063110,714.380188 888.589905,722.179260 890.758667,730.720154 
	C891.621094,734.116394 891.475830,737.595581 894.579895,739.893860 
	C900.437500,744.231018 901.150330,752.015991 906.273376,756.952881 
	C912.532715,762.984619 915.985657,771.224060 920.796509,778.302429 
	C924.719727,784.074768 931.284607,790.387390 929.026733,799.227417 
	C933.537781,804.838867 933.021301,812.229980 935.687317,818.252258 
	C937.625793,822.631104 939.632019,826.569824 939.154297,831.284912 
	C938.626160,836.497253 939.662476,840.783569 944.742310,843.776917 
	C945.000000,857.354248 945.000000,870.708435 945.000000,884.531372 
M450.027130,233.709549 
	C449.484863,235.270050 448.909821,236.820068 448.407013,238.393188 
	C447.272034,241.944519 444.264709,242.373734 441.227020,242.710251 
	C439.438568,242.908371 437.784332,242.466553 437.116882,240.629684 
	C436.031647,237.642792 438.379333,236.073074 440.048920,234.283096 
	C441.863403,232.337769 444.073730,230.665085 445.506775,228.477417 
	C451.485168,219.350906 458.349701,210.968277 465.860138,203.080978 
	C466.881866,202.007935 467.714813,200.714813 468.445740,199.416916 
	C469.129395,198.202972 469.190857,196.783340 468.364441,195.611359 
	C467.566956,194.480408 466.248230,194.669601 465.145203,195.034119 
	C459.642090,196.852661 453.827545,197.959488 449.391998,202.191986 
	C442.853088,208.431580 435.410767,213.495941 427.725769,218.166489 
	C423.947235,220.462891 421.287689,223.282715 420.319000,227.675522 
	C419.727478,230.357971 418.436279,232.589020 415.652985,233.744965 
	C408.545654,236.696732 407.890167,239.034775 413.781860,244.092850 
	C420.838745,250.151306 423.920288,257.831177 425.354828,266.631134 
	C426.291687,272.378174 427.268341,278.163696 428.873535,283.746124 
	C431.194550,291.817841 443.827667,296.783264 450.627228,291.878906 
	C454.454163,289.118683 458.105103,288.797577 462.260193,288.810120 
	C468.092590,288.827759 473.925293,288.795105 479.757660,288.755859 
	C481.576050,288.743591 483.609283,289.044281 484.907745,287.450989 
	C487.686249,284.041595 491.438751,283.870331 495.346680,283.893494 
	C501.511932,283.930084 507.677582,283.878998 513.843079,283.887939 
	C515.507812,283.890320 517.378601,284.290955 518.691223,283.170166 
	C523.734680,278.863678 529.887878,279.313385 535.807007,279.117249 
	C543.964600,278.846985 552.176147,278.446045 560.292847,279.055603 
	C578.401184,280.415558 597.121765,274.699188 614.592896,283.798096 
	C620.215210,286.726196 625.968262,289.610229 632.639099,289.352081 
	C633.054688,289.335999 633.564697,289.763641 633.904846,290.108887 
	C636.349854,292.590485 639.419678,292.950348 642.676758,292.848663 
	C644.687561,292.785889 646.726685,292.948730 648.505310,293.973999 
	C661.600586,301.522339 675.528137,291.923431 680.043945,282.636139 
	C683.040833,276.472656 686.511292,270.644165 689.949036,264.747314 
	C697.280090,252.172211 694.764343,238.345291 687.342102,228.281433 
	C678.416687,216.179474 667.310730,206.213470 654.105286,198.583542 
	C646.742188,194.329224 640.063171,188.870453 630.763794,192.366928 
	C630.202332,192.578018 629.241638,192.553574 628.829285,192.207169 
	C624.646362,188.692612 619.091736,189.297348 614.393555,187.307144 
	C609.893982,185.401016 605.166077,184.229889 599.767822,184.662369 
	C601.636108,189.304092 604.393799,192.606064 607.284668,195.784927 
	C611.532104,200.455490 616.805115,204.489349 619.934448,209.800140 
	C623.271973,215.464005 625.618591,221.770996 629.412720,227.274780 
	C630.436401,228.759857 630.561829,230.439148 629.334900,231.912445 
	C628.211609,233.261353 626.393677,233.613754 625.341125,232.454727 
	C622.708069,229.555222 619.212891,227.207382 618.085510,223.191833 
	C615.794617,215.032059 596.036316,196.373367 588.112061,192.754318 
	C582.845703,190.349152 576.720886,189.851440 572.148560,185.373764 
	C568.496765,181.797501 556.710083,186.346695 557.218018,190.892624 
	C557.914429,197.126633 555.844604,201.422287 551.073120,205.117416 
	C547.870972,207.597260 546.777649,211.190781 546.989746,215.345688 
	C547.148193,218.450104 547.226135,222.512039 542.646790,222.216827 
	C538.634399,221.958145 539.744690,218.148239 539.514099,215.458923 
	C538.887634,208.152054 540.147278,201.550644 546.245789,196.645218 
	C546.738892,196.248566 547.080688,195.593048 547.343567,194.992508 
	C548.925781,191.378372 547.063293,188.150818 543.231628,188.695892 
	C538.384460,189.385376 533.977600,188.274414 529.507141,186.912888 
	C524.241760,185.309280 519.448181,185.736755 514.960327,189.399612 
	C512.189392,191.661148 509.437164,194.508286 505.347137,194.135117 
	C498.728821,193.531265 493.907349,198.148224 488.441345,200.431473 
	C483.019165,202.696350 477.334442,204.879868 472.195312,208.076050 
	C470.237518,209.293671 468.490509,210.031052 468.161560,212.504089 
	C467.959564,214.022507 467.329376,215.405579 466.188202,216.458969 
	C460.562683,221.651520 455.636993,227.495056 450.027130,233.709549 
M496.582245,331.113403 
	C494.430511,331.305939 493.157196,333.044678 491.442078,333.989105 
	C485.451355,337.287781 478.511597,337.994568 472.361603,341.407349 
	C468.620483,343.483337 465.676910,345.323273 464.360046,349.174347 
	C463.661438,351.217377 462.843689,352.885712 460.865051,353.711182 
	C455.183197,356.081573 451.406067,362.474152 444.019867,361.288300 
	C452.852112,362.075348 461.488403,361.685974 470.118073,361.031952 
	C473.072937,360.808014 476.171356,361.039246 477.715424,363.748260 
	C480.614929,368.835419 485.188110,368.808411 489.869354,368.256073 
	C494.632568,367.694122 497.748322,369.298767 501.096954,372.908691 
	C504.643463,376.731903 507.317596,382.207886 513.418823,383.050842 
	C521.509033,384.168610 522.121643,384.608368 522.942566,392.889709 
	C523.312866,396.625214 525.122986,397.766418 528.583313,397.324982 
	C530.864014,397.034027 532.541992,395.931641 534.158630,394.347107 
	C540.121765,388.502563 546.564575,388.830688 551.994568,395.112793 
	C555.060791,398.660187 560.053894,398.783722 562.657288,395.000061 
	C565.474976,390.905029 569.298767,389.044952 574.010437,388.935974 
	C576.955261,388.867859 578.288574,387.441193 578.661987,384.808441 
	C579.647522,377.858978 584.225647,373.300507 589.154358,369.003174 
	C592.117249,366.419861 594.584045,363.066650 599.092773,362.832428 
	C604.408997,362.556335 609.713074,362.050659 615.024719,361.676941 
	C616.515747,361.572021 618.485413,361.981415 619.271667,360.708740 
	C624.199951,352.731415 632.007263,356.369812 638.716370,355.720062 
	C640.926025,355.506012 643.052673,356.268341 644.587646,357.991852 
	C646.437012,360.068329 648.734619,359.914398 651.263367,360.289185 
	C656.482544,361.062622 662.598145,359.127106 666.724792,363.854584 
	C668.786072,366.215912 670.708557,368.191650 673.960999,368.564514 
	C675.725525,368.766785 677.524780,369.777374 677.310669,371.653076 
	C676.922302,375.055298 678.656616,376.852020 681.114502,378.560089 
	C682.563538,379.567017 682.845459,381.300781 683.060974,383.000916 
	C683.981873,390.267853 686.949219,391.728363 694.437317,388.147034 
	C689.378479,378.237457 684.101746,368.646393 674.389343,362.349243 
	C672.011414,360.807495 669.528931,359.139343 668.695007,356.264435 
	C667.653503,352.673523 665.258606,351.833527 661.899780,351.866211 
	C656.548950,351.918304 651.780029,350.234009 646.702148,348.251251 
	C641.255920,346.124664 636.662415,342.711060 631.533997,340.252411 
	C626.476746,337.827850 620.141785,337.523834 616.336487,332.458344 
	C615.647034,331.540558 613.960938,331.388428 612.755188,330.838470 
	C608.743591,329.008698 603.755920,328.150238 600.745667,325.659271 
	C596.696960,322.309021 592.827148,322.104584 588.386780,322.092133 
	C566.061340,322.029572 543.735229,322.052307 521.411194,321.841858 
	C517.139648,321.801636 513.571289,322.570923 509.662628,324.661774 
	C505.632233,326.817780 501.773987,329.538177 496.582245,331.113403 
M489.158142,383.101746 
	C487.446960,381.532623 485.322510,381.161621 483.128876,381.135010 
	C477.035187,381.061035 471.175446,380.472656 466.595612,375.662537 
	C465.780792,374.806732 464.204254,374.315613 462.964020,374.285126 
	C455.985840,374.113861 448.990326,373.738770 442.041779,374.787537 
	C440.578491,375.008392 438.931244,375.036621 437.906769,376.286133 
	C434.166321,380.848145 428.497711,383.208038 424.756012,387.665955 
	C421.280182,391.807007 417.312561,395.942810 417.391296,401.893799 
	C417.450531,406.372314 417.889191,410.854675 418.341156,415.316864 
	C418.908630,420.919312 420.519043,421.897644 425.758484,420.117798 
	C431.025024,418.328766 435.951996,421.100861 436.930420,426.585999 
	C437.543457,430.022552 437.598389,433.327942 436.008881,436.787964 
	C433.315033,442.651978 436.235840,447.351715 442.526794,448.078888 
	C451.690796,449.138062 461.111053,448.661224 469.571899,453.546082 
	C472.402740,455.180420 475.795349,455.831177 478.911560,456.984558 
	C482.476685,458.304138 486.145996,458.903778 489.495209,456.808289 
	C495.738861,452.901794 501.704132,448.677917 503.411163,440.718445 
	C503.781372,438.992126 504.574127,436.970673 505.853149,435.894196 
	C510.490967,431.990784 510.976227,426.938019 510.840454,421.447296 
	C510.750244,417.798676 511.410156,414.128357 511.273987,410.484924 
	C511.120392,406.374817 511.647125,402.050720 509.790955,398.238800 
	C508.292603,395.161743 504.479431,395.928436 501.931488,394.496124 
	C500.786530,393.852478 499.521759,393.168365 498.747162,392.165894 
	C496.170715,388.831512 492.684814,386.494843 489.158142,383.101746 
M608.440796,446.317169 
	C610.289124,447.646362 612.384155,448.100494 614.600708,447.875641 
	C622.719360,447.052124 630.462708,448.501862 638.051941,451.363037 
	C641.012634,452.479218 644.233643,452.652832 647.407166,452.605225 
	C651.013000,452.551178 653.806580,451.306274 655.199646,447.591919 
	C656.265930,444.748596 658.506653,442.734100 660.601318,440.544708 
	C664.076233,436.912567 668.935364,434.217010 670.050964,428.765656 
	C670.847717,424.872528 672.378967,421.508301 675.357300,418.839661 
	C678.858337,415.702637 678.543091,412.377625 675.390381,409.364044 
	C672.123657,406.241547 670.725769,402.483521 670.936218,398.146423 
	C671.169800,393.332916 670.218201,389.317383 665.670654,386.654785 
	C664.527344,385.985352 663.783508,384.349060 663.230713,383.003235 
	C660.269287,375.793427 659.242676,375.050964 651.402832,375.536163 
	C647.065552,375.804596 643.116272,375.185852 640.026917,371.751801 
	C638.350464,369.888245 635.885010,369.429047 634.102478,370.713776 
	C627.368164,375.567688 619.732300,373.925476 612.360474,374.271729 
	C610.058838,374.379883 607.715210,374.047241 605.726807,375.780396 
	C595.850220,384.389130 585.601501,392.688263 582.509094,406.450745 
	C582.266174,407.531677 581.507263,408.544434 580.828186,409.471710 
	C576.971008,414.738586 577.217407,415.963715 583.386902,418.265625 
	C588.622498,420.219086 593.752380,422.942780 594.625427,428.587769 
	C595.941284,437.095306 600.598389,442.278076 608.440796,446.317169 
M409.616516,357.040009 
	C402.543854,356.376648 388.451691,366.702271 385.099030,374.713715 
	C382.352325,381.277344 379.168732,387.647522 375.215942,393.597839 
	C373.487518,396.199738 373.787354,399.119476 374.612701,401.767273 
	C375.527191,404.701141 378.434784,403.826935 380.649902,403.866302 
	C385.139404,403.946106 389.632263,403.815491 394.123047,403.852722 
	C402.911072,403.925629 403.063873,403.941193 402.675140,394.907166 
	C402.451355,389.706940 403.599121,385.677734 408.218842,382.489655 
	C411.565338,380.180237 414.421906,376.949646 416.931946,373.694183 
	C419.901123,369.843262 423.277557,367.569580 428.272552,367.713837 
	C431.830444,367.816559 434.081787,365.975647 434.905701,361.972076 
	C429.332581,360.234650 423.832581,361.118378 418.429321,360.935272 
	C415.218689,360.826447 412.022614,360.833435 409.616516,357.040009 
M483.751984,298.003448 
	C476.285339,298.001160 468.770691,298.516663 461.367401,297.830566 
	C455.584717,297.294647 452.820404,299.529724 451.303162,304.587921 
	C456.407257,308.510803 462.334106,309.593445 467.968994,308.268188 
	C478.951782,305.685272 489.397217,301.341095 499.290771,295.818665 
	C499.565704,295.665222 499.550476,294.992004 499.658112,294.605774 
	C493.647583,291.483551 488.796417,293.181091 483.751984,298.003448 
M586.529541,289.239075 
	C585.790405,289.947327 585.668640,290.834778 586.602844,291.266357 
	C591.166687,293.375122 595.942383,293.314392 600.738586,292.278564 
	C601.749268,292.060303 602.506226,291.250122 602.235596,290.055267 
	C601.924561,288.681854 600.786438,288.268250 599.571838,288.264709 
	C595.425964,288.252594 591.261169,287.973755 586.529541,289.239075 
z"/>
<path fill="#000000" opacity="1.000000" stroke="none" 
	d="
M444.252991,721.152222 
	C441.864319,720.923035 440.575409,719.706482 439.391785,718.220703 
	C438.678162,717.324890 437.782654,715.997681 436.877411,715.919128 
	C426.722351,715.038452 422.744080,705.645203 415.673798,700.559937 
	C413.691742,699.134338 412.261627,698.422119 409.933411,699.044373 
	C403.337158,700.807434 396.478516,701.351562 389.866882,702.707214 
	C384.304962,703.847656 378.687775,706.255432 373.191315,708.301208 
	C367.154724,710.548035 360.714325,713.249756 353.783905,712.257324 
	C350.903198,711.844788 348.202454,712.232544 345.771912,714.131592 
	C343.608124,715.822021 340.946259,714.921753 338.494812,715.116760 
	C332.719604,715.575989 326.581726,713.257202 321.295502,717.836914 
	C320.290741,718.707458 317.782562,717.932373 315.980103,717.776733 
	C308.276459,717.111450 301.065704,721.022217 293.339081,720.173157 
	C291.693756,719.992310 290.581665,721.110901 289.495270,722.187866 
	C287.515015,724.151001 285.364044,725.503479 282.355347,724.480225 
	C280.111542,723.717102 278.545685,725.178711 277.058319,726.532532 
	C273.744904,729.548584 269.803711,730.243469 265.468933,730.131409 
	C259.537384,729.978088 253.386902,730.722046 249.818176,724.304077 
	C249.336456,723.437805 248.099777,722.540222 248.232544,721.854553 
	C249.312119,716.279663 243.781067,712.359009 244.627762,706.903931 
	C244.676285,706.591309 244.659561,706.115051 244.467941,705.940979 
	C239.446487,701.380249 241.927673,695.485840 241.624054,690.092407 
	C241.596268,689.598938 241.823700,688.971741 241.597382,688.626160 
	C235.348999,679.085876 239.941788,668.741882 239.439606,658.791016 
	C239.273865,655.507263 238.676422,652.207031 239.328140,648.856018 
	C240.330322,643.703003 243.244019,641.028809 248.551712,640.929810 
	C251.380081,640.877014 254.245682,641.249084 257.032410,640.913635 
	C260.961487,640.440735 263.927582,641.385132 265.432861,645.219116 
	C271.074310,643.775940 276.502167,645.047791 281.910919,644.936035 
	C287.019745,644.830444 292.151764,645.739563 297.257019,645.599243 
	C301.184265,645.491272 303.343933,649.423462 307.448395,649.001770 
	C311.183411,648.618164 315.037292,649.567627 318.845184,649.657471 
	C321.427856,649.718384 323.558044,650.180420 325.714569,651.901184 
	C328.872406,654.421021 333.070709,652.611694 336.696991,653.647644 
	C337.934906,654.001343 339.366791,653.903198 340.676575,653.740967 
	C348.452881,652.778076 355.582306,655.815735 362.988312,657.173218 
	C365.904053,657.707642 368.936218,657.686584 371.919098,657.753296 
	C375.056366,657.823486 377.855347,658.378174 379.727448,661.268616 
	C380.489166,662.444641 381.683868,663.255371 383.140350,662.519775 
	C384.780548,661.691467 383.990265,660.217896 383.782501,658.967102 
	C383.362152,656.436340 382.490021,654.411926 379.963013,652.955383 
	C376.350494,650.873047 375.906128,646.888977 379.232819,644.313232 
	C382.360565,641.891602 382.848450,639.078064 382.787323,635.602173 
	C382.713440,631.401733 382.632660,627.035706 387.574188,625.093628 
	C393.984497,622.574341 401.343811,623.723206 404.848480,627.873535 
	C406.032806,629.276062 407.383606,629.903564 409.149933,629.976318 
	C413.142639,630.140686 417.139587,630.278320 421.121796,630.592407 
	C423.409882,630.772827 424.753296,629.675720 426.186615,628.080017 
	C429.835205,624.018066 431.929901,623.959534 435.563324,627.947754 
	C437.217072,629.763062 438.951569,630.195251 441.270508,630.215454 
	C457.426086,630.355652 473.580475,630.637329 489.735413,630.859924 
	C491.591187,630.885498 493.747345,630.729248 494.928009,632.176086 
	C500.508820,639.015076 508.368622,634.975586 515.027527,636.550964 
	C515.776306,636.728149 517.045715,636.036804 517.632812,635.363708 
	C524.827026,627.114990 534.070190,631.838562 542.479431,631.383057 
	C542.894165,631.360596 543.537903,631.745911 543.736450,632.120667 
	C546.951965,638.191406 552.652527,636.738281 557.828979,636.801575 
	C562.660278,636.860657 567.494263,636.761047 572.324097,636.866089 
	C575.609985,636.937500 578.378601,636.492737 580.714355,633.615540 
	C582.969666,630.837585 586.129578,630.856995 588.432312,633.751709 
	C590.453125,636.291992 592.856628,636.864807 595.864624,636.826172 
	C606.693665,636.686829 617.524719,636.700928 628.354980,636.647644 
	C629.519104,636.641968 631.235840,637.059326 631.760071,636.460632 
	C636.247437,631.336487 643.583496,631.749695 648.518677,627.613770 
	C649.028992,627.186035 649.493774,626.696533 650.035522,626.314880 
	C653.133179,624.132751 675.871521,624.144775 678.960571,626.327576 
	C680.413513,627.354248 681.324341,628.854370 681.310669,630.556091 
	C681.263245,636.485413 683.501038,642.976074 676.763245,647.264221 
	C674.374634,648.784302 675.157227,651.823608 675.286804,654.273560 
	C675.530579,658.883789 673.328491,662.228760 671.351013,666.262695 
	C668.611816,671.850647 664.472290,676.995789 663.064026,683.223328 
	C662.490723,685.758606 661.975281,688.063599 659.656189,689.572510 
	C659.113220,689.925842 658.382324,690.450378 658.300903,690.982361 
	C657.458801,696.482361 652.853516,700.777771 651.901672,705.396301 
	C650.493469,712.229004 645.790833,715.343994 641.974304,719.598877 
	C638.474792,723.500244 634.864441,727.050659 628.891968,727.954285 
	C625.887268,728.408813 623.002930,732.095520 620.807922,734.902344 
	C617.392212,739.270142 612.956238,740.244812 607.965698,740.071289 
	C604.763855,739.960022 602.150635,740.497803 600.326599,743.550476 
	C598.889954,745.954895 596.259033,746.228149 593.669128,746.120117 
	C587.184326,745.849670 580.700562,745.553223 574.215698,745.283386 
	C570.098877,745.112000 566.292664,745.629150 563.381287,749.122253 
	C561.827026,750.987122 559.560547,751.521118 557.060730,751.499573 
	C541.067566,751.361877 525.073364,751.273438 509.079712,751.297546 
	C505.604462,751.302795 502.465240,751.067688 500.199921,747.953003 
	C498.614655,745.773376 496.157196,746.070740 493.806213,745.986755 
	C489.158356,745.820862 484.378693,745.976562 481.287354,741.363647 
	C480.285248,739.868286 478.136810,740.332520 476.777893,739.511841 
	C470.260803,735.575684 462.860352,733.472595 456.498749,729.065918 
	C452.626587,726.383667 450.985565,720.116577 444.252991,721.152222 
M618.495789,647.949280 
	C614.500488,647.953796 610.505066,647.950439 606.509827,647.966919 
	C605.010437,647.973083 603.194519,647.754944 602.294861,649.036255 
	C599.225281,653.408020 594.858948,653.604736 590.252502,653.138916 
	C585.420776,652.650391 583.893311,654.800659 583.941162,659.533569 
	C584.052124,670.504517 584.661987,681.495361 583.506958,692.455627 
	C583.328491,694.149475 583.368286,695.845459 586.134521,696.682190 
	C589.085083,691.223450 594.498291,691.563599 599.876648,691.737976 
	C601.219177,691.781433 602.814331,691.743835 603.540161,690.545654 
	C606.578857,685.529846 611.485474,686.243225 616.291138,685.629395 
	C623.340393,684.729065 628.685913,679.366760 635.364258,677.054626 
	C637.755310,676.226868 639.781433,673.937439 642.783752,673.693909 
	C646.577393,673.386108 653.244263,667.461792 653.445190,663.825500 
	C653.654114,660.044556 654.742920,657.303711 657.929688,654.979553 
	C660.830872,652.863708 660.715637,642.728088 657.915894,641.868774 
	C653.630310,640.553406 648.542358,639.845032 645.088501,643.067871 
	C641.570251,646.350769 637.944641,647.524658 633.455994,647.541260 
	C628.800232,647.558472 624.145386,647.801147 618.495789,647.949280 
M555.494263,653.137512 
	C546.892578,652.082336 537.515137,655.970703 529.804077,649.123901 
	C529.675598,649.009827 529.207214,649.278687 528.891968,649.377869 
	C528.014465,650.371338 528.226379,651.566772 528.358276,652.704346 
	C529.647400,663.821899 529.139771,674.983948 528.934814,686.115417 
	C528.724304,697.552979 528.445801,697.501831 539.982727,697.896545 
	C544.225403,698.041626 548.612488,697.437561 551.980225,701.335510 
	C555.080200,704.923523 558.430908,704.930725 561.798828,701.635742 
	C563.687012,699.788513 565.608337,698.523560 568.330322,698.586609 
	C571.429565,698.658508 572.895386,696.973450 572.893372,693.942017 
	C572.885376,681.959534 572.820862,669.976746 572.884583,657.994690 
	C572.903076,654.520691 571.179688,653.230225 567.973633,653.229065 
	C564.145996,653.227722 560.318359,653.172791 555.494263,653.137512 
M479.334503,678.816711 
	C479.463318,681.627502 478.102966,685.445557 482.733063,685.694275 
	C486.548553,685.899292 489.443604,687.104187 491.526215,690.333496 
	C492.312256,691.552368 493.692902,691.765808 495.073700,691.765015 
	C501.055908,691.761475 507.038300,691.788696 513.020264,691.750183 
	C515.967041,691.731201 517.710999,690.389954 517.710144,687.222046 
	C517.707031,675.755920 517.710571,664.289673 517.755005,652.823669 
	C517.767944,649.489929 516.171448,648.041321 512.881592,647.968506 
	C504.084381,647.773987 495.291199,647.365051 486.493561,647.233154 
	C479.503448,647.128235 479.222076,647.798889 479.439789,654.608765 
	C479.688477,662.387390 479.449127,670.181580 479.334503,678.816711 
M602.891846,728.885864 
	C606.682556,728.914490 610.082886,728.293640 612.333801,724.644531 
	C613.334839,723.021729 615.312134,722.665649 617.231079,722.640747 
	C618.546387,722.623718 620.070740,722.937378 621.064880,721.914551 
	C627.192749,715.609558 634.226562,710.215271 639.770142,703.336121 
	C640.343079,702.625122 640.631836,701.483826 640.626953,700.544373 
	C640.608643,697.064758 642.325928,694.576660 644.785034,692.378235 
	C646.881104,690.504333 648.058594,688.359741 645.825073,684.478638 
	C641.959473,690.970825 636.009399,690.508911 630.205566,690.543579 
	C628.991333,690.550842 627.663818,690.888977 627.095032,691.877625 
	C624.724365,695.998901 621.055908,697.196289 616.600525,697.238770 
	C615.612854,697.248169 614.342529,698.112244 613.704041,698.960449 
	C610.953186,702.615051 607.234436,703.297424 603.029968,702.943665 
	C599.417908,702.639832 596.138550,702.990540 593.907410,706.578125 
	C592.836731,708.299683 590.677490,708.673218 588.644836,709.063477 
	C585.124329,709.739502 580.743286,707.357422 578.181641,710.465332 
	C575.711487,713.462219 578.576477,717.507568 578.125061,721.143311 
	C577.824585,723.563354 577.092163,726.659912 579.019165,728.327698 
	C581.650391,730.605103 583.001709,734.874878 587.468689,734.647522 
	C592.035828,734.415161 597.357849,736.275330 599.940186,730.223083 
	C600.186340,729.646423 601.360840,729.465942 602.891846,728.885864 
M508.497711,735.044006 
	C511.322601,735.053650 514.151733,735.162476 516.971130,735.042480 
	C519.345337,734.941406 522.725159,735.900940 523.416931,732.805725 
	C524.257996,729.042175 525.589172,723.833374 522.241394,721.540588 
	C517.723511,718.446350 517.543091,714.839661 517.724854,710.433472 
	C518.013550,703.437988 517.653503,703.540222 510.658539,702.988464 
	C500.422363,702.180969 489.430084,706.508606 480.301910,698.346497 
	C478.881195,700.217712 479.105927,701.921082 479.382111,703.501831 
	C480.249298,708.465149 479.498108,712.440857 474.789337,715.552429 
	C472.158112,717.291138 472.315399,720.545898 474.858246,722.885071 
	C478.061829,725.832092 480.654999,729.838135 486.021820,729.210144 
	C487.425323,729.045898 489.003693,729.989380 489.823395,731.310730 
	C491.777618,734.461243 494.726624,734.863159 498.039185,734.796997 
	C501.191284,734.734070 504.348846,734.943909 508.497711,735.044006 
M458.125427,641.403564 
	C452.141602,641.589478 446.158325,641.797485 440.173676,641.950134 
	C437.909210,642.007935 436.131592,642.684570 436.109772,645.273438 
	C436.047394,652.678284 436.087799,660.084045 436.087799,667.819824 
	C441.131012,667.074890 443.488098,669.014404 444.962585,673.137939 
	C446.309265,676.904236 449.349884,679.351807 453.629333,679.711060 
	C456.229492,679.929260 458.543640,680.766602 460.044678,683.034302 
	C461.647552,685.455750 463.808441,686.360229 466.480133,685.276184 
	C469.017578,684.246643 468.665497,681.830505 468.667633,679.676208 
	C468.677399,669.860168 468.607208,660.043274 468.711700,650.228271 
	C468.802460,641.702271 468.888916,641.702942 460.477478,641.439636 
	C459.978271,641.424011 459.478729,641.418274 458.125427,641.403564 
M554.600952,715.167847 
	C551.003357,714.953064 546.695251,716.022095 544.343933,712.648560 
	C540.697388,707.416748 535.746582,709.242126 531.207336,709.545532 
	C528.243958,709.743652 527.004272,714.942627 529.611084,716.050659 
	C536.610046,719.025391 535.455750,724.622131 534.781860,729.990479 
	C534.287537,733.928406 535.869324,735.115601 539.415405,735.057495 
	C545.738342,734.953796 552.063110,734.968567 558.386719,734.903748 
	C566.879578,734.816711 566.854492,734.804749 566.753052,726.340027 
	C566.612549,714.616882 569.052673,715.117188 554.600952,715.167847 
M436.092743,693.111755 
	C436.112366,695.271606 436.176575,697.432190 436.140106,699.591125 
	C436.096680,702.161499 437.154816,703.801941 439.839996,703.911621 
	C443.668549,704.067932 446.092804,706.343506 448.654755,708.890564 
	C458.063629,718.244812 458.121307,718.145508 466.427155,710.839905 
	C470.092773,707.615540 468.851166,703.384705 468.411713,699.631165 
	C468.005463,696.161194 464.510681,697.417297 462.218292,697.177002 
	C457.596558,696.692383 452.824127,696.795654 450.095398,691.871582 
	C449.441681,690.691833 447.941895,690.310974 446.558105,690.357971 
	C443.042114,690.477234 440.182861,689.000061 437.883057,686.677490 
	C434.924133,688.013733 435.219330,690.093323 436.092743,693.111755 
M406.318298,641.854370 
	C404.044586,641.269409 402.872864,639.502563 401.511139,637.762878 
	C399.177551,634.781372 395.548767,634.739685 394.054596,637.402466 
	C392.469635,640.227112 393.573792,646.980103 395.798035,649.533691 
	C401.553436,656.141418 407.213165,662.799438 416.426727,664.746521 
	C417.504883,664.974365 418.452209,666.072876 419.616638,665.151367 
	C420.678192,664.311279 420.475708,663.107544 420.367950,661.925781 
	C420.156616,659.607422 419.875885,657.281921 419.878357,654.959656 
	C419.894897,639.612366 420.475494,642.145874 406.318298,641.854370 
z"/>
<path fill="#000000" opacity="1.000000" stroke="none" 
	d="
M481.295593,790.494263 
	C477.538422,787.993774 473.527435,789.436951 469.819000,788.609680 
	C467.130066,788.009827 464.614502,787.500244 463.034729,785.004944 
	C462.487457,784.140442 461.853638,783.157288 460.794556,783.205933 
	C454.163727,783.510376 451.018524,778.214966 446.890259,774.581604 
	C443.317749,771.437500 442.565033,759.380859 445.554688,755.848755 
	C446.815460,754.359253 448.432343,753.574829 450.427338,753.999207 
	C453.050201,754.556946 454.536499,756.416199 454.771912,758.883057 
	C455.524658,766.770996 459.693024,771.132812 467.562775,771.998413 
	C468.041840,772.051147 468.592987,772.214661 468.948029,772.517273 
	C479.074036,781.149963 491.340759,780.686462 503.524078,780.817078 
	C514.999451,780.940125 526.530273,781.345215 537.933350,780.902039 
	C544.104004,780.662292 551.470337,779.687927 556.550598,774.371826 
	C556.779419,774.132324 557.028076,773.770569 557.301880,773.735779 
	C564.154602,772.864868 568.739136,766.898804 575.396790,765.675964 
	C577.546875,765.281067 579.009949,764.168335 580.262634,762.524109 
	C581.732300,760.595032 583.743408,759.926514 586.025269,760.584290 
	C588.590942,761.323914 589.601929,763.464661 589.973022,765.870850 
	C590.880981,771.758667 588.145813,775.420471 582.255920,776.364014 
	C582.092163,776.390320 581.876831,776.328857 581.765259,776.413391 
	C576.344055,780.521729 569.697754,782.264832 563.899658,785.753235 
	C557.815063,789.414062 551.034790,794.270447 544.492432,794.372620 
	C525.740173,794.665405 506.937073,795.808472 488.158295,794.491272 
	C485.168945,794.281616 483.116852,793.171631 481.295593,790.494263 
z"/>
<path fill="#000000" opacity="1.000000" stroke="none" 
	d="
M385.844513,975.797180 
	C386.891479,977.067932 387.570770,978.363464 389.694000,977.717651 
	C389.694000,969.056946 389.698334,960.282959 389.691376,951.509033 
	C389.689209,948.766724 387.836517,947.806030 385.550995,947.348267 
	C382.670349,946.771362 380.524231,945.130188 379.977203,942.307373 
	C379.380280,939.226990 378.918884,935.657654 382.163513,933.701721 
	C385.312561,931.803406 388.131653,934.137573 390.191040,936.030273 
	C393.465088,939.039307 395.960388,942.848999 399.813904,945.341919 
	C401.308014,946.308533 401.307495,948.197021 401.305481,949.904663 
	C401.294556,959.224731 401.361206,968.545288 401.289642,977.864746 
	C401.256165,982.226990 393.666229,990.497925 389.286469,991.011902 
	C385.671509,991.436157 381.871277,990.320129 380.925201,986.966003 
	C379.322235,981.283020 374.603516,977.464661 373.194458,971.540222 
	C372.419159,968.280457 369.206055,964.223755 364.136871,964.487793 
	C362.942902,964.550049 361.561188,964.349487 360.948303,963.359131 
	C357.663025,958.050171 352.456390,959.184814 347.569794,959.151917 
	C345.575012,959.138489 343.542511,959.287598 341.594910,958.960022 
	C338.625366,958.460693 336.912689,956.541870 336.817780,953.450012 
	C336.716675,950.156982 338.687317,948.411987 341.675751,948.245667 
	C346.485138,947.978088 351.318695,948.055603 356.139740,948.131775 
	C358.027496,948.161499 359.666168,949.049561 360.875244,950.576782 
	C361.717743,951.640869 362.695526,952.416504 364.063751,952.820312 
	C375.600922,956.225159 382.484955,964.098206 385.844513,975.797180 
z"/>
<path fill="#000000" opacity="1.000000" stroke="none" 
	d="
M696.890259,646.241516 
	C704.125610,638.544128 703.940125,625.971069 696.641602,619.209595 
	C695.806885,618.436218 694.808960,617.377075 693.821594,617.301514 
	C683.474731,616.510437 679.468384,607.232849 673.335144,601.278198 
	C669.406006,597.463501 670.090454,590.682312 671.955200,585.094604 
	C672.709351,582.834717 674.653687,581.741760 677.122925,582.113281 
	C679.927185,582.535339 681.546814,584.234863 682.007690,587.023987 
	C683.725586,597.421326 690.422363,603.273071 699.975647,606.220886 
	C705.009521,607.774109 712.076111,615.612122 712.372070,620.902405 
	C712.678284,626.376953 712.552856,631.884888 713.061035,637.336731 
	C713.807190,645.342407 711.778625,652.030762 705.247925,657.110046 
	C702.767822,659.038696 700.632935,661.320068 698.671143,663.839172 
	C696.736877,666.323120 693.871521,667.232056 691.322632,664.666809 
	C688.950012,662.278992 688.175232,658.376770 691.023743,656.786011 
	C695.441345,654.318909 695.893250,650.567383 696.890259,646.241516 
z"/>
<path fill="#000000" opacity="1.000000" stroke="none" 
	d="
M376.883270,592.131714 
	C381.733246,587.081482 386.195496,582.169189 390.985016,577.599915 
	C393.803802,574.910706 397.596069,574.715515 401.322144,575.262817 
	C403.660828,575.606384 404.584412,577.420959 404.978271,579.479187 
	C405.371307,581.533325 405.152344,583.555786 403.248260,584.848511 
	C396.452881,589.462158 391.385651,595.897766 385.531158,601.502563 
	C384.699066,602.299194 383.756134,603.554871 382.828613,603.587830 
	C373.786896,603.909058 369.999603,611.641846 364.201691,616.524048 
	C358.564575,621.270874 355.066742,626.782776 356.994965,634.612610 
	C357.458649,636.495605 357.153503,638.591797 357.057281,640.582947 
	C356.925995,643.299377 355.975647,645.660400 352.880219,645.869141 
	C350.068634,646.058838 346.903961,645.102295 346.470032,642.217041 
	C345.161743,633.517212 344.903473,624.668091 346.898346,616.046509 
	C347.691437,612.618896 351.973450,611.522156 354.069427,608.625610 
	C356.076874,605.851440 359.258545,603.945435 361.384857,601.234863 
	C365.346558,596.184692 370.519043,593.569092 376.883270,592.131714 
z"/>
<path fill="#000000" opacity="1.000000" stroke="none" 
	d="
M612.562744,958.393799 
	C610.371155,955.295044 608.289001,952.835510 607.763306,948.969238 
	C606.811462,941.968994 611.767212,938.585999 615.075623,933.978882 
	C621.490845,925.045471 630.715698,926.332214 639.696594,926.860291 
	C642.599976,927.031006 644.762817,929.071716 644.707703,932.137451 
	C644.655029,935.068665 642.368164,936.457031 639.658386,936.751648 
	C637.182556,937.020874 634.576172,937.420471 632.192200,936.941711 
	C626.271362,935.752686 622.860596,939.215088 619.656494,943.110840 
	C617.027466,946.307373 621.051147,953.541382 626.052307,953.530884 
	C631.620483,953.519287 637.941589,956.069580 642.405945,949.517029 
	C644.442261,946.528137 656.666687,947.221924 659.533081,949.689880 
	C660.973755,950.930359 662.211243,952.453918 661.410583,954.461243 
	C660.429382,956.920959 658.347473,959.038635 655.890991,959.018311 
	C650.547791,958.974365 646.243896,961.269165 641.451416,963.063843 
	C634.138184,965.802551 625.987061,964.113647 618.220276,963.622925 
	C615.720459,963.464966 614.614502,960.355408 612.562744,958.393799 
z"/>
<path fill="#000000" opacity="1.000000" stroke="none" 
	d="
M515.292053,576.754272 
	C516.667175,577.738525 517.886536,578.361267 518.823181,579.274170 
	C521.547546,581.929260 522.357544,585.210083 519.830261,588.172668 
	C517.215515,591.237671 514.063599,589.784607 511.387268,587.792542 
	C505.406464,583.340820 497.882904,580.998169 493.321808,574.581421 
	C493.000854,574.129883 492.087280,573.788086 491.518921,573.871277 
	C484.602814,574.883179 482.397888,568.805542 478.832550,565.142212 
	C475.700226,561.923767 476.349304,557.728455 478.654022,554.064880 
	C480.437958,551.229248 483.070160,551.668884 485.727478,552.782410 
	C488.236908,553.834045 489.246429,555.790955 488.917450,558.356750 
	C488.573761,561.037781 489.805267,562.059814 492.264771,561.986694 
	C495.192047,561.899658 497.344757,563.112915 498.944336,565.549927 
	C499.466125,566.344849 500.276672,567.417480 501.051971,567.504883 
	C507.243073,568.203247 510.589233,573.175293 515.292053,576.754272 
z"/>
<path fill="#000000" opacity="1.000000" stroke="none" 
	d="
M558.232117,579.993958 
	C555.126038,583.144165 551.835144,584.791504 547.681213,584.270569 
	C545.088867,583.945435 543.286682,584.983826 541.877258,587.215210 
	C539.676758,590.698914 536.728699,590.580322 533.861755,588.148804 
	C530.827209,585.575134 531.726685,582.851685 534.205017,580.457642 
	C537.594910,577.183044 540.378784,572.805969 546.144592,573.554871 
	C546.729187,573.630798 547.606262,573.353760 547.971680,572.922119 
	C551.533813,568.715332 555.841980,567.214844 561.284668,568.577209 
	C563.056274,569.020630 564.150085,567.249023 565.326050,566.068115 
	C567.920776,563.462402 571.105225,562.628906 573.553101,565.641968 
	C576.048950,568.713867 574.276794,570.926636 571.291382,573.350098 
	C567.401733,576.507568 563.907166,579.791870 558.232117,579.993958 
z"/>
<path fill="#000000" opacity="1.000000" stroke="none" 
	d="
M515.796265,571.216614 
	C514.474670,569.931519 513.461182,568.832703 512.341064,567.856323 
	C509.104095,565.034790 507.787628,561.610962 509.855988,557.688171 
	C512.056824,553.514221 515.362244,550.546509 520.545105,551.121094 
	C525.142212,551.630676 527.898376,554.643677 529.585876,558.656067 
	C530.507874,560.848450 529.536621,562.905884 528.177856,564.664185 
	C526.562195,566.754944 524.631714,568.621338 523.167419,570.805908 
	C520.954224,574.107910 518.723633,574.463806 515.796265,571.216614 
z"/>
<path fill="#000000" opacity="1.000000" stroke="none" 
	d="
M489.190002,531.163818 
	C488.837250,527.153992 491.929657,526.408203 494.427032,525.816406 
	C496.651031,525.289368 496.988739,527.507690 496.751038,529.202515 
	C496.447998,531.362976 495.903107,533.722229 492.896088,533.188538 
	C491.663544,532.969788 490.559631,532.026123 489.190002,531.163818 
z"/>
<path fill="#000000" opacity="1.000000" stroke="none" 
	d="
M671.676147,256.142151 
	C674.838806,258.965942 674.975098,262.459534 674.970459,265.940247 
	C674.964966,270.073517 673.201965,272.316589 668.647827,272.250488 
	C664.162415,272.185333 662.336792,269.796326 662.168152,265.834869 
	C662.071106,263.556183 662.370605,261.185974 662.933472,258.969116 
	C664.193237,254.007034 667.883972,255.191315 671.676147,256.142151 
z"/>
<path fill="#000000" opacity="1.000000" stroke="none" 
	d="
M656.238220,219.865326 
	C658.141541,221.596191 659.796997,223.162476 658.667725,225.624908 
	C657.689148,227.758698 655.613342,228.007263 653.576538,227.902405 
	C651.158203,227.777924 648.723145,227.154922 648.157532,224.452835 
	C647.522400,221.419296 646.390808,218.983078 643.926575,216.927429 
	C642.236755,215.517868 642.261047,213.261505 644.097839,211.701996 
	C645.925720,210.150024 647.999695,210.513062 649.315796,212.347214 
	C651.257202,215.052734 653.209045,217.683517 656.238220,219.865326 
z"/>
</svg>